HIERARCHY
ROOT Hips
{
     OFFSET 10.75540 96.57940 7.64799
     CHANNELS 6 Xposition Yposition Zposition Zrotation Xrotation Yrotation
     JOINT Spine
     {
          OFFSET -0.00000 11.89050 0.00000
          CHANNELS 3 Zrotation Xrotation Yrotation
          JOINT Spine1
          {
               OFFSET -0.00000 25.65740 0.12766
               CHANNELS 3 Zrotation Xrotation Yrotation
               JOINT HEad
               {
                    OFFSET -0.00000 8.73416 0.01134
                    CHANNELS 3 Zrotation Xrotation Yrotation
                    End Site
                    {
                         OFFSET -0.29000 12.77420 2.51395
                    }
               }
               JOINT LeftShoulder1
               {
                    OFFSET 8.99000 -0.36225 -0.22000
                    CHANNELS 3 Zrotation Xrotation Yrotation
                    JOINT LeftArm
                    {
                         OFFSET 10.28270 -0.00338 0.32212
                         CHANNELS 3 Zrotation Xrotation Yrotation
                         JOINT LeftForeArm
                         {
                              OFFSET 32.76690 0.09914 -1.42434
                              CHANNELS 3 Zrotation Xrotation Yrotation
                              JOINT LeftHand
                              {
                                   OFFSET 27.56430 0.08536 1.02216
                                   CHANNELS 3 Zrotation Xrotation Yrotation
                                   End Site
                                   {
                                        OFFSET 16.74430 -0.60000 1.50291
                                   }
                              }
                         }
                    }
               }
               JOINT RightShoulder
               {
                    OFFSET -8.99000 -0.36225 -0.22000
                    CHANNELS 3 Zrotation Xrotation Yrotation
                    JOINT RightArm
                    {
                         OFFSET -10.28270 -0.00338 0.32212
                         CHANNELS 3 Zrotation Xrotation Yrotation
                         JOINT RightForeArm
                         {
                              OFFSET -32.89710 0.09914 -1.42434
                              CHANNELS 3 Zrotation Xrotation Yrotation
                              JOINT RightHand
                              {
                                   OFFSET -27.49210 0.08536 1.02216
                                   CHANNELS 3 Zrotation Xrotation Yrotation
                                   End Site
                                   {
                                        OFFSET -16.63120 -0.60000 1.50291
                                   }
                              }
                         }
                    }
               }
          }
     }
     JOINT LeftUpLeg
     {
          OFFSET 8.94580 -8.66707 0.10165
          CHANNELS 3 Zrotation Xrotation Yrotation
          JOINT LeftLeg
          {
               OFFSET 0.00000 -44.42270 1.37270
               CHANNELS 3 Zrotation Xrotation Yrotation
               JOINT LeftFoot
               {
                    OFFSET -0.25355 -42.09240 -1.46059
                    CHANNELS 3 Zrotation Xrotation Yrotation
                    JOINT LeftToes
                    {
                         OFFSET -0.04000 -4.41509 8.49910
                         CHANNELS 3 Zrotation Xrotation Yrotation
                         End Site
                         {
                              OFFSET 0.08000 -0.04745 9.77979
                         }
                    }
               }
          }
     }
     JOINT RightUpLeg
     {
          OFFSET -8.94580 -8.66707 0.10165
          CHANNELS 3 Zrotation Xrotation Yrotation
          JOINT RightLeg
          {
               OFFSET -0.00000 -44.42270 1.37270
               CHANNELS 3 Zrotation Xrotation Yrotation
               JOINT RightFoot
               {
                    OFFSET 0.25355 -42.09240 -1.46059
                    CHANNELS 3 Zrotation Xrotation Yrotation
                    JOINT RightToes
                    {
                         OFFSET 0.04000 -4.41509 8.49910
                         CHANNELS 3 Zrotation Xrotation Yrotation
                         End Site
                         {
                              OFFSET -0.08000 -0.13745 9.77979
                         }
                    }
               }
          }
     }
}
MOTION
Frames: 20
Frame Time: 0.01667
10.75540 96.57940 7.64799 -3.88056 -12.20790 -18.16170 -0.72913 9.23918 -1.46141 -1.54581 18.51660 -2.67274 -1.28576 5.71055 4.19192 -0.00000 -0.00000 0.00000 -106.95900 -57.49650 -88.35170 -45.14100 50.23890 -71.54550 18.10230 7.05087 -14.34520 15.48510 0.54301 0.44205 80.55410 -12.37290 73.60730 26.53170 30.30010 87.12960 24.62870 11.66080 3.63034 17.75350 -3.39904 -20.44070 -16.62730 4.72749 40.84220 -8.27735 10.20860 1.21037 6.94486 -14.82090 -54.08940 -20.66650 9.76917 16.17450 33.63120 2.24993 -25.05160 -37.82680 4.58346 4.10442 8.72385 -43.86600 17.47150 
11.02480 96.43960 8.11270 -3.85160 -12.26460 -18.37140 -0.99522 9.22741 -1.45961 -1.65410 18.47060 -2.67096 -1.14337 5.84872 4.12277 -0.00000 -0.00000 0.00000 -109.91200 -58.03100 -90.85660 -46.76290 51.80120 -70.47500 18.38300 6.97103 -14.55320 15.53020 0.57682 0.62382 81.06210 -12.45530 74.12940 27.18660 30.97890 87.77930 24.45050 11.66320 3.69909 17.78460 -2.87065 -20.59870 -16.67750 3.95475 40.86080 -7.21260 11.40470 1.11196 6.82389 -15.49840 -55.01770 -20.91820 9.53901 16.19100 33.66590 3.08299 -25.74190 -38.35850 4.47462 4.12983 9.34234 -45.50790 17.88330 
11.30900 96.29830 8.56822 -3.77158 -12.38380 -18.49620 -1.34960 9.25078 -1.45450 -1.84993 18.49430 -2.67767 -0.87092 5.86814 3.95377 -0.00000 -0.00000 0.00000 -112.05400 -58.24350 -92.78310 -47.80180 52.89980 -69.73090 18.58200 6.91532 -14.69080 15.68300 0.60182 0.74265 81.51780 -12.58550 74.63110 27.49560 31.63800 88.50060 24.24250 11.65490 3.72950 17.71800 -2.33315 -20.79650 -16.88790 3.26957 41.49920 -6.13097 12.29680 0.97434 6.46491 -16.95980 -55.95290 -21.23030 9.35146 16.26170 33.69400 3.91185 -26.52380 -38.86660 4.32144 4.13568 9.94629 -47.07460 18.24870 
11.62350 96.10520 9.01233 -3.76745 -12.53510 -18.54070 -1.47252 9.30357 -1.47169 -2.02389 18.60530 -2.68228 -0.50052 5.77018 3.67123 -0.00000 -0.00000 0.00000 -113.19800 -58.09730 -93.95770 -48.06840 53.51700 -69.46410 18.72370 6.88454 -14.73180 15.90300 0.60417 0.72805 81.93150 -12.70420 75.09580 27.51160 32.21380 89.22420 24.03190 11.64400 3.74993 17.52800 -2.21178 -20.82990 -17.22310 3.52678 42.54820 -5.21793 12.68480 0.83096 5.90112 -19.01830 -57.06480 -21.45970 9.13834 16.36790 33.75400 4.90547 -27.40710 -39.25670 4.02193 4.07367 10.45570 -48.46840 18.43960 
11.92640 95.95340 9.40047 -3.69447 -12.75800 -18.47020 -1.68825 9.40413 -1.46800 -2.24102 18.80510 -2.66680 -0.10366 5.64718 3.23804 -0.00000 -0.00000 0.00000 -113.28100 -57.59190 -94.27680 -47.50760 53.66720 -69.71900 18.84120 6.87962 -14.63870 16.17220 0.58120 0.57227 82.26430 -12.81940 75.45360 27.41330 32.65140 89.83660 23.87450 11.63520 3.76195 17.18910 -2.17468 -20.57520 -17.57540 3.96266 43.73100 -4.17459 13.07810 0.65820 5.19998 -21.34300 -58.39430 -21.78470 9.10288 16.62740 33.82980 5.57141 -28.22810 -39.56810 3.77758 4.02068 10.78090 -49.56520 18.35350 
12.21420 95.85310 9.73474 -3.57772 -13.01300 -18.30520 -1.97677 9.53087 -1.42992 -2.46430 19.04860 -2.60930 0.26229 5.58140 2.66096 -0.00000 -0.00000 0.00000 -112.28600 -56.76530 -93.66900 -46.22190 53.32810 -70.42300 18.94240 6.89873 -14.41680 16.47780 0.53861 0.31310 82.44220 -12.96570 75.61350 27.38520 32.91960 90.24000 23.80680 11.62860 3.75388 16.73590 -2.21385 -19.96720 -17.84020 4.55691 44.79630 -3.06158 13.59080 0.46809 4.41937 -23.67380 -59.85670 -22.17180 9.25594 16.99150 33.90350 5.85626 -28.88310 -39.77610 3.61578 3.98502 10.90660 -50.31500 18.02880 
12.49360 95.79810 10.04290 -3.44530 -13.25860 -18.11530 -2.29775 9.65851 -1.35165 -2.66733 19.28730 -2.49461 0.56006 5.55544 2.03449 -0.00000 -0.00000 0.00000 -110.18400 -55.68210 -92.08420 -44.41950 52.39090 -71.44740 18.98170 6.94054 -14.12140 16.78200 0.48759 0.01764 82.41640 -13.15270 75.53560 27.44530 33.02080 90.42850 23.79340 11.62340 3.73407 16.20810 -2.27085 -19.07100 -17.93630 5.24452 45.62120 -1.98998 14.18330 0.27688 3.60438 -25.85900 -61.37440 -22.60070 9.57046 17.38440 33.95360 5.78456 -29.32230 -39.93600 3.56199 3.98309 10.92990 -50.82530 17.64720 
12.77660 95.77740 10.35980 -3.31596 -13.46660 -18.00480 -2.60882 9.77009 -1.23840 -2.84657 19.49200 -2.32180 0.75163 5.51963 1.47961 -0.00000 -0.00000 0.00000 -107.04800 -54.41690 -89.61410 -42.37840 50.74940 -72.63520 18.88030 7.00784 -13.81080 17.05330 0.44496 -0.22415 82.18990 -13.38320 75.27830 27.45020 32.99850 90.47030 23.76240 11.61860 3.72233 15.64100 -2.26744 -18.02540 -17.84180 5.93188 46.17650 -1.10241 14.71200 0.11034 2.82254 -27.74390 -62.85890 -23.06550 9.97689 17.74960 33.95790 5.45877 -29.52170 -40.10740 3.62312 4.02471 10.95590 -51.22940 17.37180 
13.07180 95.78340 10.70630 -3.20837 -13.60640 -18.06210 -2.86951 9.85507 -1.10484 -3.00200 19.64690 -2.10512 0.81794 5.47554 1.05127 -0.00000 -0.00000 0.00000 -103.25600 -53.07730 -86.61090 -40.43190 48.49270 -73.78670 18.59460 7.09839 -13.53490 17.28370 0.42570 -0.33864 81.80620 -13.66230 74.95550 27.22950 32.91050 90.44800 23.69110 11.61440 3.72641 15.10170 -2.18020 -17.04190 -17.64910 6.52331 46.56030 -0.51120 15.02450 -0.00504 2.16767 -29.16820 -64.18470 -23.53370 10.35870 18.05280 33.89550 5.05410 -29.44980 -40.24090 3.75588 4.08883 10.99310 -51.52120 17.22460 
13.38080 95.80830 11.08480 -3.14475 -13.64840 -18.32100 -3.04758 9.91059 -0.96845 -3.12605 19.74920 -1.86620 0.79893 5.42402 0.70259 -0.00000 -0.00000 0.00000 -99.35300 -51.80400 -83.53380 -38.79540 45.93960 -74.77620 18.17380 7.19421 -13.35120 17.44610 0.43260 -0.31467 81.34430 -13.96550 74.65420 26.67620 32.78930 90.45050 23.62230 11.61060 3.73186 14.69000 -2.05420 -16.37230 -17.55340 6.94540 47.01410 -0.20304 15.03260 -0.06580 1.70551 -30.07890 -65.23030 -23.94800 10.59930 18.27720 33.76360 4.74631 -29.11040 -40.22810 3.88829 4.13640 10.98650 -51.60910 17.13440 
13.69830 95.84350 11.48500 -3.13716 -13.57650 -18.76220 -3.13648 9.94150 -0.84124 -3.21309 19.80810 -1.62455 0.79179 5.31310 0.30270 -0.00000 -0.00000 0.00000 -95.76860 -50.72120 -80.72840 -37.46670 43.49060 -75.61690 17.75890 7.26812 -13.29570 17.50030 0.45610 -0.20008 80.89140 -14.24690 74.40500 25.79080 32.64760 90.55610 23.60380 11.60400 3.70714 14.47280 -1.95293 -16.13450 -17.70860 7.18035 47.73330 -0.05301 14.75280 -0.09382 1.42938 -30.58010 -65.92410 -24.26620 10.64520 18.41360 33.57500 4.61082 -28.57410 -40.05850 3.99129 4.15495 10.91470 -51.49070 17.04440 
14.01750 95.88320 11.89210 -3.17270 -13.39080 -19.33730 -3.15773 9.95455 -0.73007 -3.27188 19.83420 -1.39711 0.90739 5.07918 -0.33026 -0.00000 -0.00000 0.00000 -92.75790 -49.92380 -78.40430 -36.37660 41.49660 -76.33770 17.50640 7.30102 -13.34080 17.44550 0.48433 -0.05374 80.50520 -14.48680 74.20860 24.71160 32.51150 90.77790 23.63900 11.59000 3.62964 14.43050 -1.91745 -16.21870 -18.10750 7.26717 48.71080 0.07575 14.28570 -0.11577 1.27477 -30.85840 -66.28230 -24.48180 10.50460 18.43370 33.33880 4.63452 -27.91900 -39.83370 4.09666 4.16761 10.80200 -51.27940 16.92290 
14.33490 95.92600 12.29330 -3.22054 -13.11370 -19.99330 -3.14736 9.95936 -0.63954 -3.32645 19.84360 -1.19868 1.23645 4.69142 -1.39488 -0.00000 -0.00000 0.00000 -90.40410 -49.46300 -76.64910 -35.48790 40.14370 -76.92760 17.48170 7.29540 -13.40430 17.31670 0.51270 0.10048 80.20520 -14.71310 74.05930 23.68360 32.41520 91.04790 23.69410 11.56860 3.51049 14.47360 -1.95009 -16.40820 -18.61720 7.27358 49.79100 0.24833 13.74480 -0.14425 1.17875 -31.05420 -66.39000 -24.62020 10.21570 18.30900 33.05980 4.78885 -27.17250 -39.64020 4.24150 4.19789 10.65370 -51.07100 16.70210 
14.64830 95.97370 12.67720 -3.25366 -12.79450 -20.69490 -3.14397 9.97056 -0.56994 -3.40484 19.86400 -1.03647 1.83598 4.15340 -3.03233 -0.00000 -0.00000 0.00000 -88.56400 -49.27390 -75.37670 -34.72520 39.34350 -77.40810 17.62340 7.27172 -13.41280 17.14340 0.54330 0.27217 79.98870 -14.97620 73.94250 22.94870 32.37700 91.26730 23.72680 11.54420 3.38535 14.50150 -2.01423 -16.50550 -19.07980 7.27487 50.78330 0.41353 13.21570 -0.16990 1.12550 -31.18390 -66.35580 -24.72680 9.83101 18.07300 32.75850 5.03440 -26.34960 -39.49990 4.43225 4.25064 10.45000 -50.87710 16.31680 
14.95190 96.02850 13.03390 -3.26506 -12.48650 -21.42900 -3.17206 10.00090 -0.51929 -3.51831 19.92050 -0.91312 2.69989 3.49521 -5.23140 -0.00000 -0.00000 0.00000 -86.89070 -49.14550 -74.33060 -33.93970 38.75870 -77.85220 17.81890 7.24893 -13.35970 16.93480 0.57435 0.45267 79.86210 -15.29960 73.83810 22.64570 32.40000 91.35750 23.71770 11.52160 3.28233 14.46150 -2.05799 -16.38020 -19.39600 7.32562 51.55210 0.45675 12.75600 -0.17316 1.12744 -31.19320 -66.29670 -24.83910 9.40185 17.81050 32.46860 5.31576 -25.52150 -39.40790 4.66289 4.32316 10.22450 -50.70000 15.85280 
15.23970 96.08860 13.36120 -3.27088 -12.20980 -22.18910 -3.22591 10.05310 -0.49020 -3.64659 20.01950 -0.83756 3.74140 2.77150 -7.84792 -0.00000 -0.00000 0.00000 -84.99960 -48.80850 -73.20960 -33.01380 37.98760 -78.30960 17.98910 7.23314 -13.28790 16.69360 0.59393 0.58049 79.84480 -15.65250 73.73710 22.79150 32.47090 91.27400 23.69170 11.50410 3.20882 14.37850 -2.05792 -16.01060 -19.57610 7.43390 52.08800 0.32881 12.38060 -0.14714 1.18197 -31.06650 -66.30410 -24.95810 8.95198 17.57650 32.21970 5.59784 -24.81970 -39.35110 4.93763 4.41554 10.09430 -50.60640 15.57520 
15.51120 96.14840 13.66510 -3.29252 -11.94560 -22.97110 -3.28364 10.12110 -0.48850 -3.75361 20.14970 -0.82319 4.84754 2.03872 -10.74490 -0.00000 -0.00000 0.00000 -82.69820 -48.07940 -71.83890 -31.98280 36.78470 -78.74690 18.10490 7.22351 -13.23260 16.44320 0.58969 0.58654 79.93280 -15.97790 73.64340 23.29070 32.55530 91.01440 23.68570 11.49510 3.16814 14.31510 -2.03285 -15.45430 -19.70140 7.58071 52.46890 0.08246 12.05640 -0.10207 1.26934 -30.84690 -66.38920 -25.06020 8.47346 17.36930 32.03380 5.87371 -24.38420 -39.34850 5.25466 4.52976 10.16820 -50.69470 15.70470 
15.76940 96.20290 13.95490 -3.33764 -11.67520 -23.79320 -3.33673 10.19990 -0.51424 -3.81634 20.30130 -0.87414 5.95218 1.31400 -13.86370 -0.00000 -0.00000 0.00000 -80.10720 -46.95510 -70.23910 -31.01140 35.18080 -79.07690 18.16670 7.21787 -13.20680 16.21780 0.56300 0.46984 80.09510 -16.24340 73.54980 23.93860 32.61700 90.64520 23.69530 11.49550 3.16696 14.30100 -1.99950 -14.74660 -19.82820 7.76187 52.74990 -0.19782 11.73820 -0.05269 1.36876 -30.59690 -66.49000 -25.13380 7.95999 17.16140 31.92490 6.13816 -24.30630 -39.52240 5.58490 4.67175 10.45120 -51.03200 16.19350 
16.01770 96.24820 14.23830 -3.40660 -11.41330 -24.70560 -3.38870 10.29230 -0.55972 -3.83092 20.47970 -0.97959 7.04045 0.56741 -17.17290 -0.00000 -0.00000 0.00000 -77.50360 -45.55280 -68.51100 -30.20420 33.38470 -79.27020 18.18470 7.21439 -13.21100 16.03320 0.52568 0.28906 80.29440 -16.44080 73.41500 24.46640 32.63960 90.30030 23.68040 11.50410 3.21205 14.32320 -1.92866 -13.87890 -19.96490 7.98194 52.94920 -0.43250 11.39220 -0.01235 1.45665 -30.38590 -66.53520 -25.18510 7.42858 16.91170 31.89120 6.40149 -24.58900 -40.01750 5.89397 4.85015 10.85810 -51.62890 16.78240 
16.25810 96.28280 14.52340 -3.50608 -11.18350 -25.77270 -3.43134 10.40190 -0.61721 -3.80286 20.69430 -1.12128 8.10666 -0.23315 -20.61250 -0.00000 -0.00000 0.00000 -75.08690 -43.98200 -66.72020 -29.49740 31.57650 -79.40310 18.14830 7.21810 -13.22380 15.90470 0.48566 0.08510 80.47080 -16.54230 73.18640 24.63980 32.62250 90.11900 23.60540 11.52000 3.31118 14.37440 -1.76647 -12.86610 -20.12400 8.21708 53.10570 -0.56346 10.97830 0.00979 1.52342 -30.24570 -66.47270 -25.21450 6.88275 16.56090 31.92250 6.73634 -25.12140 -40.76080 6.16248 5.05070 11.26110 -52.36320 17.22110 
